<svg xmlns="http://www.w3.org/2000/svg" viewBox="0 0 605.38 133.3"><g id="Layer_2" data-name="Layer 2"><g id="Layer_1-2" data-name="Layer 1"><path d="M66.55,0c35.3-.48,66.54,28.73,66.57,66.58a66.72,66.72,0,0,1-68,66.69C28,132.49-.25,101.32,0,66.14.26,30.16,30.07-.38,66.55,0Zm0,8.26A58.42,58.42,0,0,0,8.34,66.61c0,32.1,26.13,58.3,58.08,58.3A58.32,58.32,0,0,0,66.53,8.27Z"/><path d="M220.32,95h-7c-1.91,0-3.83,0-5.75,0-.94,0-1.3-.33-1.58-1.17-1.26-3.87-2.6-7.7-3.87-11.56a1.27,1.27,0,0,0-1.43-1q-11.8.06-23.62,0a1.26,1.26,0,0,0-1.42,1c-1.34,3.92-2.77,7.81-4.11,11.74a1.26,1.26,0,0,1-1.45,1c-3.64,0-7.27-.06-10.91,0-1.15,0-1.21-.29-.86-1.25q9.64-26.64,19.25-53.3c1.15-3.18,2.33-6.36,3.44-9.56a1.11,1.11,0,0,1,1.28-.88q7.3,0,14.63,0a1.13,1.13,0,0,1,1.27.91q10.92,31.57,21.89,63.14C220.15,94.31,220.21,94.58,220.32,95Zm-31-52.29c-.2.26-.3.34-.33.44q-4.56,13.23-9.11,26.45c-.29.83,0,.92.76.92,5.51,0,11,0,16.54,0,.88,0,1-.24.74-1-.87-2.56-1.66-5.15-2.49-7.73Z"/><path d="M324.17,88.69a2.7,2.7,0,0,0-.32.27c-5.14,9.48-20.41,10-27.46.87-4.24-5.46-5.73-11.75-5.53-18.52.19-6.21,1.92-12,6.26-16.54,5.18-5.48,11.57-7.51,19-5.55a14.48,14.48,0,0,1,7.84,5.72c.4-.48.25-1,.25-1.41,0-7.43,0-14.85,0-22.28,0-1,.28-1.26,1.27-1.25,3.64.06,7.28.07,10.92,0,1.09,0,1.3.31,1.29,1.34,0,17.32,0,34.65,0,52,0,3.55.11,7.1.38,10.65.06.79-.12,1-.93,1q-5.76-.06-11.52,0c-.81,0-1-.31-1-1C324.43,92.25,324.29,90.55,324.17,88.69ZM304.74,72.41a30.93,30.93,0,0,0,.54,6.79c.7,3.24,2,6.1,5.29,7.48a8.45,8.45,0,0,0,11-3.64,20.28,20.28,0,0,0,2.58-10.44,20.91,20.91,0,0,0-2.29-10.29,8.58,8.58,0,0,0-5.16-4.53c-4.78-1.4-9.26,1-10.89,5.88A26.68,26.68,0,0,0,304.74,72.41Z"/><path d="M397.82,89a3.45,3.45,0,0,0-.39.44c-3.54,5.66-8.93,7.24-15.19,6.86a16,16,0,0,1-3.07-.5c-8-2-11.91-9.65-9.21-17.84,2-6,6.41-9.23,12.31-10.77A44,44,0,0,1,395,66c1.19,0,1.55-.32,1.43-1.46-.09-.79,0-1.6,0-2.39a5.78,5.78,0,0,0-5.61-6,5.9,5.9,0,0,0-6.56,5.27c-.11,1-.39,1.23-1.36,1.21q-5.21-.11-10.43,0c-1.07,0-1.26-.34-1.17-1.29.45-4.79,2.64-8.39,7.06-10.49,4.8-2.29,9.92-2.56,15.12-2.23a22.25,22.25,0,0,1,7.1,1.59c5.46,2.26,8.36,6.43,9.1,12.21a51.65,51.65,0,0,1,.2,6.46q0,9.77,0,19.53a24.46,24.46,0,0,0,.46,5.47c.17.79.05,1.15-.9,1.13-3.36,0-6.72,0-10.07,0-.79,0-1.06-.28-1.11-1C398.1,92.38,398,90.77,397.82,89Zm-4.49-15.22c-2.84.1-5.67.32-8.21,1.78a6,6,0,0,0-3,6.5,6.27,6.27,0,0,0,5.21,5.23,6.72,6.72,0,0,0,7.9-4.64,19.77,19.77,0,0,0,1-5.85C396.48,73.64,396.5,73.64,393.33,73.76Z"/><path d="M462,61.92c.76.19,1.53.35,2.29.57,7.77,2.2,12.18,8.16,11.87,16C475.87,87,471,92.82,463,94.44a27.2,27.2,0,0,1-5.47.54c-7.72,0-15.43,0-23.14,0-.9,0-1.23-.18-1.23-1.17q0-30.64,0-61.3c0-.58-.09-1.08.81-1.07,8.07.13,16.16-.3,24.21.31,6.71.51,12,3.62,14.46,10.26a14.78,14.78,0,0,1-9.47,19.32c-.37.13-.75.24-1.13.36ZM438.89,77.23c0,3.75,0,7.5,0,11.25,0,1,.2,1.3,1.23,1.28,4.16-.06,8.32,0,12.47,0a42,42,0,0,0,7.76-.51c5.36-1,8.48-3.8,9.45-8.55a16.72,16.72,0,0,0,.3-4.52c-.32-5.14-2.8-8.36-7.7-10A27.4,27.4,0,0,0,456,65c-5.39-.45-10.79-.16-16.18-.27-.81,0-1,.27-1,1C438.91,69.56,438.89,73.4,438.89,77.23Zm0-29.12c0,3.31.05,6.63,0,9.94,0,1.1.2,1.5,1.41,1.47,4-.09,7.91,0,11.87,0A28.42,28.42,0,0,0,457.5,59c5.77-1.09,9.26-4.35,9.86-9.56.63-5.52-1.43-9.89-7.31-11.72a19.77,19.77,0,0,0-4.11-.79c-5.38-.45-10.78-.1-16.17-.23-.8,0-.89.33-.89,1C438.9,41.17,438.89,44.64,438.89,48.11Z"/><path d="M239.67,80.35a1.89,1.89,0,0,0,.61-1.15q4.8-14.16,9.56-28.33a1.23,1.23,0,0,1,1.42-1q5.28.06,10.55,0c.92,0,1.19.11.83,1.1Q254.78,72.51,247,94.12a1.06,1.06,0,0,1-1.18.87q-6.53,0-13.07,0a1,1,0,0,1-1.11-.8q-7.93-21.68-15.93-43.33c-.29-.78-.22-1,.68-1,4,0,8.08,0,12.11,0,.89,0,1.21.31,1.48,1.12q4.59,14.1,9.26,28.17C239.37,79.5,239.5,79.87,239.67,80.35Z"/><path d="M511.69,88.78a17,17,0,0,1-13.1,7.45c-6.54.62-13.7-2.45-15.5-9.93s2-14.1,9.4-16.74A27.78,27.78,0,0,1,501,68.13C504,68,507.12,68,510.2,68c1.09,0,1.34-.38,1.29-1.39a33.72,33.72,0,0,0-.32-5c-.82-4-3-6.26-7-7a18.66,18.66,0,0,0-7.73.25,7.5,7.5,0,0,0-6.06,6.2c-.15.77-.47,1-1.18.94-1.12,0-2.24-.06-3.36,0s-1.23-.32-1-1.25c1.14-5,4-8.54,9-10.14a23.55,23.55,0,0,1,14-.17A11.7,11.7,0,0,1,516.61,62c.15,7.83.07,15.65.08,23.48,0,2.8.16,5.59.42,8.37.08.9-.17,1.21-1.09,1.14a31.2,31.2,0,0,0-3.35,0c-.73,0-1-.23-1-.95C511.71,92.28,511.69,90.53,511.69,88.78Zm-5.2-16v.16c-1.11,0-2.24-.06-3.35,0a26.4,26.4,0,0,0-9.57,1.89,8.26,8.26,0,0,0-5.2,8.92c.43,3.9,2.83,6.52,6.86,7.43a17.14,17.14,0,0,0,2.49.34c5.78.39,10.32-2.29,12.34-7.34a25.48,25.48,0,0,0,1.46-10.57c0-.68-.3-.88-1-.86C509.21,72.77,507.85,72.74,506.49,72.74Z"/><path d="M576.06,68.7l5.22-4.4q7.54-6.37,15.09-12.77a2.5,2.5,0,0,1,1.82-.69c1.78.06,3.56,0,5.7,0l-2.76,2.38q-9.33,8-18.68,16c-.7.59-.71.88-.08,1.53q11.07,11.46,22.08,23a2.67,2.67,0,0,1,.93,1.24c-2.08,0-4.1,0-6.11,0-.5,0-.72-.47-1-.78L577,72.23c-.29-.3-.51-.7-1-.84a2.3,2.3,0,0,0-.14,1.29c0,7,0,14,0,20.95,0,1.15-.35,1.45-1.41,1.36a29.52,29.52,0,0,0-3.12,0c-.58,0-.8-.21-.75-.77,0-.24,0-.48,0-.72q0-30.3,0-60.6c0-1.13.23-1.58,1.43-1.44a18.66,18.66,0,0,0,3,0c.71,0,.88.24.87.9,0,2.51,0,5,0,7.54q0,13.71,0,27.43A2.08,2.08,0,0,0,576.06,68.7Z"/><path d="M269,72.43c0-7.11,0-14.21,0-21.32,0-1,.23-1.29,1.25-1.28,3.72.06,7.44.05,11.16,0,.82,0,1.08.23,1.08,1.07q0,21.5,0,43c0,1-.36,1.1-1.18,1.09-3.68,0-7.36,0-11,0-1,0-1.27-.25-1.27-1.26C269,86.64,269,79.53,269,72.43Z"/><path d="M348,72.43c0-7.11,0-14.21,0-21.32,0-1,.22-1.3,1.25-1.28,3.71.06,7.43.05,11.15,0,.83,0,1.08.22,1.08,1.07q0,21.5,0,43c0,.82-.21,1.09-1.06,1.08q-5.64-.06-11.27,0c-.89,0-1.15-.22-1.15-1.12C348,86.72,348,79.57,348,72.43Z"/><path d="M531.75,57.27c.49-.06.55-.37.7-.59C536,51.3,541,49.17,547.31,49.6c5.45.37,9.6,2.74,12,7.79a19.89,19.89,0,0,1,1.89,8.46c.08,9.42,0,18.84.07,28.26,0,.69-.22.91-.89.88a23.1,23.1,0,0,0-3,0c-1.06.09-1.41-.21-1.4-1.35,0-8.9,0-17.8,0-26.7a16.85,16.85,0,0,0-.7-5.19,10.17,10.17,0,0,0-9.13-7.31c-7.75-.66-13.11,3.75-14.19,11.66a27.14,27.14,0,0,0-.26,3.82c0,7.94,0,15.89,0,23.83,0,1-.27,1.35-1.26,1.24-1.3-.15-3,.55-3.8-.28s-.21-2.43-.21-3.7q0-14.25,0-28.5,0-5.32-.41-10.64c-.06-.77.1-1.08.93-1a33.47,33.47,0,0,0,3.47,0c.77,0,1,.19,1,1C531.54,53.62,531.67,55.41,531.75,57.27Z"/><path d="M275.74,30c2.07,0,4.15,0,6.23,0,.71,0,1,.19,1,.93,0,3.23,0,6.47,0,9.7,0,.74-.26,1-1,1q-6.24,0-12.46,0c-.74,0-1-.23-.95-1,0-3.23,0-6.46,0-9.69,0-.75.24-1,1-.93C271.58,30.05,273.66,30,275.74,30Z"/><path d="M354.59,41.58c-2,0-4,0-6,0-.73,0-1.06-.16-1-1,0-3.23,0-6.46,0-9.7,0-.66.18-.89.87-.89,4.2,0,8.39,0,12.59,0,.63,0,.92.12.92.85q-.06,4.91,0,9.81c0,.78-.31.93-1,.92C358.82,41.56,356.7,41.58,354.59,41.58Z"/><path d="M66.63,46.77c-.45.11-.64.44-.88.68L45.33,67.89c-1.58,1.59-3.17,3.15-4.73,4.77-.46.48-.75.51-1.23,0-1.75-1.81-3.52-3.6-5.34-5.34-.65-.61-.52-1,0-1.5q7.23-7.2,14.41-14.42C54.23,45.64,60,39.89,65.73,34.09c.66-.66,1-.67,1.67,0Q83.2,50,99.07,65.82c.68.68.56,1,0,1.59-1.73,1.67-3.43,3.35-5.08,5.1-.62.65-1,.63-1.58,0Q79.94,60,67.47,47.55Z"/><path d="M53.28,86.52c-.17-.15-.33-.27-.47-.41-1.89-1.89-3.77-3.8-5.69-5.66-.44-.44-.33-.67,0-1Q56.58,70,66,60.57c.49-.49.77-.46,1.24,0Q76.52,70,85.89,79.34c.48.48.5.73,0,1.21q-2.67,2.58-5.24,5.26c-.59.62-.92.56-1.49,0-3.87-3.92-7.8-7.8-11.66-11.73-.69-.72-1.06-.73-1.76,0-3.89,4-7.83,7.87-11.75,11.8C53.77,86.08,53.53,86.29,53.28,86.52Z"/><path d="M66.58,99.83c-.24-.21-.46-.38-.65-.57-1.89-1.9-3.76-3.81-5.68-5.68-.46-.46-.54-.72,0-1.23q2.93-2.84,5.76-5.77c.48-.5.77-.45,1.23,0C69.1,88.55,71,90.47,73,92.37c.41.41.51.67,0,1.13-2,1.92-3.91,3.89-5.86,5.84C67,99.5,66.8,99.64,66.58,99.83Z"/></g></g></svg>