<?xml version="1.0" encoding="UTF-8"?>
<svg xmlns="http://www.w3.org/2000/svg" version="1.1" viewBox="0 0 11 8.5">
  <defs>
    <style>
      .cls-1 {
        fill: #231f20;
      }

      .cls-2 {
        fill: #010101;
        fill-rule: evenodd;
      }
    </style>
  </defs>
  <!-- Generator: Adobe Illustrator 28.6.0, SVG Export Plug-In . SVG Version: 1.2.0 Build 709)  -->
  <g>
    <g id="Layer_1">
      <g>
        <path class="cls-1" d="M1.43,6.28l-.1.1v.27h-.15v-.86h.15v.4l.08-.1.25-.3h.18l-.32.38.34.48h-.18l-.26-.37Z"/>
        <path class="cls-1" d="M2.26,6.14s-.04,0-.06,0c-.07,0-.11.03-.13.08v.44h-.14v-.64h.14v.07c.04-.05.09-.08.15-.08.02,0,.04,0,.05,0v.13Z"/>
        <path class="cls-1" d="M2.35,5.84s0-.04.02-.05.03-.02.06-.02.05,0,.06.02c.01.01.02.03.02.05s0,.04-.02.05c-.01.01-.03.02-.06.02s-.05,0-.06-.02c-.01-.01-.02-.03-.02-.05ZM2.51,6.65h-.14v-.64h.14v.64Z"/>
        <path class="cls-1" d="M3.02,6.47s0-.04-.03-.06-.06-.03-.1-.04c-.05-.01-.09-.02-.12-.04-.07-.04-.11-.08-.11-.15,0-.06.02-.1.07-.14.05-.04.11-.06.18-.06.08,0,.14.02.19.06.05.04.07.09.07.15h-.14s0-.05-.03-.07c-.02-.02-.05-.03-.08-.03-.03,0-.06,0-.08.02-.02.01-.03.03-.03.06,0,.02,0,.04.03.05.02.01.06.02.11.04s.1.03.13.04c.03.02.06.04.07.06.02.02.02.05.02.09,0,.06-.02.1-.07.14-.05.04-.11.05-.19.05-.05,0-.1,0-.14-.03-.04-.02-.07-.04-.1-.08-.02-.03-.03-.07-.03-.11h.14s.01.06.04.08c.02.02.05.03.09.03s.07,0,.09-.02.03-.03.03-.06Z"/>
        <path class="cls-1" d="M3.43,6.08c.05-.05.11-.08.18-.08.14,0,.21.08.21.23v.42h-.14v-.41s0-.08-.03-.09c-.02-.02-.05-.03-.08-.03-.06,0-.1.03-.13.08v.46h-.14v-.91h.14v.34Z"/>
        <path class="cls-1" d="M4.09,6.01v.07c.05-.06.11-.09.19-.09.13,0,.2.08.2.23v.42h-.14v-.41s0-.07-.03-.09c-.02-.02-.05-.03-.09-.03-.06,0-.1.03-.13.08v.46h-.14v-.64h.14Z"/>
        <path class="cls-1" d="M5.01,6.65s-.01-.03-.02-.06c-.05.05-.1.07-.17.07s-.12-.02-.16-.05c-.04-.04-.06-.08-.06-.14,0-.07.03-.12.08-.16s.12-.05.22-.05h.09v-.04s0-.06-.03-.08c-.02-.02-.05-.03-.08-.03-.03,0-.06,0-.08.02-.02.02-.03.04-.03.06h-.14s.01-.07.04-.1c.02-.03.05-.05.09-.07s.08-.03.13-.03c.08,0,.13.02.18.06.04.04.07.09.07.16v.29c0,.06,0,.1.02.14h0s-.15,0-.15,0ZM4.86,6.54s.05,0,.08-.02.04-.03.06-.06v-.12h-.08c-.05,0-.09,0-.12.03-.03.02-.04.04-.04.08,0,.03,0,.05.03.07.02.02.04.02.07.02Z"/>
        <path class="cls-1" d="M5.42,6.01v.07c.05-.06.11-.09.19-.09.13,0,.2.08.2.23v.42h-.14v-.41s0-.07-.03-.09c-.02-.02-.05-.03-.09-.03-.06,0-.1.03-.13.08v.46h-.14v-.64h.14Z"/>
        <path class="cls-1" d="M6.83,6.37c0,.09-.04.16-.1.21-.06.05-.14.08-.24.08-.07,0-.13-.02-.18-.05-.05-.03-.09-.08-.12-.14-.03-.06-.04-.13-.04-.21v-.08c0-.08.01-.15.04-.21.03-.06.07-.11.12-.14.05-.03.12-.05.19-.05.09,0,.17.03.23.08.06.05.09.12.1.22h-.15c0-.06-.02-.11-.05-.13s-.07-.04-.13-.04c-.07,0-.12.02-.15.07-.04.05-.05.12-.05.21v.08c0,.09.02.16.05.21.03.05.08.07.15.07.06,0,.1-.01.13-.04s.05-.07.06-.13h.15Z"/>
        <path class="cls-1" d="M7.33,6.65s-.01-.03-.02-.06c-.05.05-.1.07-.17.07s-.12-.02-.16-.05c-.04-.04-.06-.08-.06-.14,0-.07.03-.12.08-.16s.12-.05.22-.05h.09v-.04s0-.06-.03-.08c-.02-.02-.05-.03-.08-.03-.03,0-.06,0-.08.02-.02.02-.03.04-.03.06h-.14s.01-.07.04-.1c.02-.03.05-.05.09-.07s.08-.03.13-.03c.08,0,.13.02.18.06.04.04.07.09.07.16v.29c0,.06,0,.1.02.14h0s-.15,0-.15,0ZM7.17,6.54s.05,0,.08-.02.04-.03.06-.06v-.12h-.08c-.05,0-.09,0-.12.03-.03.02-.04.04-.04.08,0,.03,0,.05.03.07.02.02.04.02.07.02Z"/>
        <path class="cls-1" d="M8.17,6.33c0,.1-.02.18-.07.24-.04.06-.11.09-.18.09-.07,0-.13-.02-.17-.07v.3h-.14v-.89h.13v.07c.05-.05.1-.08.18-.08.08,0,.14.03.18.09.04.06.07.14.07.24h0ZM8.02,6.32c0-.06-.01-.12-.04-.15s-.06-.06-.11-.06c-.06,0-.1.02-.13.07v.28s.07.08.13.08c.05,0,.08-.02.11-.06.03-.04.04-.09.04-.17Z"/>
        <path class="cls-1" d="M8.29,5.84s0-.04.02-.05.03-.02.06-.02.05,0,.06.02c.01.01.02.03.02.05s0,.04-.02.05c-.01.01-.03.02-.06.02s-.05,0-.06-.02c-.01-.01-.02-.03-.02-.05ZM8.44,6.65h-.14v-.64h.14v.64Z"/>
        <path class="cls-1" d="M8.78,5.85v.16h.11v.11h-.11v.36s0,.04.01.05c0,.01.03.02.05.02.02,0,.03,0,.05,0v.11s-.06.01-.09.01c-.11,0-.17-.06-.17-.18v-.36h-.11v-.11h.11v-.16h.14Z"/>
        <path class="cls-1" d="M9.38,6.65s-.01-.03-.02-.06c-.05.05-.1.07-.17.07s-.12-.02-.16-.05c-.04-.04-.06-.08-.06-.14,0-.07.03-.12.08-.16s.12-.05.22-.05h.09v-.04s0-.06-.03-.08c-.02-.02-.05-.03-.08-.03-.03,0-.06,0-.08.02-.02.02-.03.04-.03.06h-.14s.01-.07.04-.1c.02-.03.05-.05.09-.07s.08-.03.13-.03c.08,0,.13.02.18.06.04.04.07.09.07.16v.29c0,.06,0,.1.02.14h0s-.15,0-.15,0ZM9.22,6.54s.05,0,.08-.02.04-.03.06-.06v-.12h-.08c-.05,0-.09,0-.12.03-.03.02-.04.04-.04.08,0,.03,0,.05.03.07.02.02.04.02.07.02Z"/>
        <path class="cls-1" d="M9.81,6.65h-.14v-.91h.14v.91Z"/>
      </g>
      <g>
        <path class="cls-2" d="M5.5,4.29h0s0,0,0,0c-.22-.21-.54-.37-.92-.48l-3.48-.98c.51.88,1.92,1.24,1.92,1.24l2.09.59-.35.33.75-.21.75.21-.35-.33,2.09-.59s1.41-.36,1.92-1.24l-3.48.98c-.38.11-.7.27-.92.48Z"/>
        <path class="cls-2" d="M9.62,2.01l-1.57.53c-.92.31-1.66.76-2.14,1.3h0s2.41-.82,2.41-.82c0,0,.99-.31,1.3-1.01Z"/>
        <path class="cls-2" d="M9.04,1.34l-1.04.47c-.6.28-1.06.64-1.31,1.06h0s1.59-.73,1.59-.73c0,0,.66-.28.76-.8Z"/>
        <path class="cls-2" d="M2.68,3.02l2.41.82h0c-.48-.54-1.22-.99-2.14-1.3l-1.57-.53c.31.7,1.3,1.01,1.3,1.01Z"/>
        <path class="cls-2" d="M2.72,2.14l1.59.73h0c-.25-.42-.7-.78-1.31-1.06l-1.04-.47c.09.52.76.8.76.8Z"/>
      </g>
    </g>
  </g>
</svg>