<?xml version="1.0" encoding="UTF-8"?>
<!-- Generator: Adobe Illustrator 27.4.0, SVG Export Plug-In . SVG Version: 6.00 Build 0)  -->
<svg xmlns="http://www.w3.org/2000/svg" xmlns:xlink="http://www.w3.org/1999/xlink" version="1.1" id="Layer_1" x="0px" y="0px" viewBox="0 0 240 92" style="enable-background:new 0 0 240 92;" xml:space="preserve">
<style type="text/css">
	.st0{fill:#0B5B94;}
</style>
<g>
	<g>
		<polygon class="st0" points="62.1,14.5 47.6,51.9 32.9,14.5 21.2,14.5 10,74.4 22,74.4 29.1,36.9 43,74.4 52,74.4 65.9,36.9     73,74.4 85.4,74.4 73.8,14.5   "></polygon>
		<rect x="88.4" y="14.5" class="st0" width="11.2" height="60"></rect>
		<polygon class="st0" points="103.3,14.5 103.3,24.2 116.5,24.2 116.5,74.4 127.7,74.4 127.7,24.2 140.9,24.2 140.9,14.5   "></polygon>
		<g>
			<path class="st0" d="M155.8,74.4h-11.2v-60h26.7c1.1,0,2.9,0.4,5.4,1.1s5,2.4,7.5,4.9c2.5,2.6,3.7,6.3,3.7,11.2     c0,5.1-1.3,9-4,11.6c-2.7,2.7-5.4,4.3-8.2,5c-2.7,0.8-4.8,1.1-6.1,1.1l20,25H176l-18.3-24.8V38.9l11.2-0.1h0.6     c1.5,0,3.1-0.6,4.6-1.7c1.7-1.3,2.5-3.1,2.5-5.4c0-2.1-0.7-3.8-2.1-5.2c-1.4-1.3-3.3-2-5.7-2h-13.1v49.9H155.8z"></path>
			<polygon class="st0" points="189.5,14.5 224.3,14.5 224.3,24.2 200.8,24.2 200.8,39.6 224,39.6 224,49.3 200.8,49.3 200.8,64.7      224.3,64.7 224.3,74.4 189.5,74.4    "></polygon>
		</g>
	</g>
</g>
</svg>
