<?xml version="1.0" encoding="utf-8"?>
<!-- Generator: Adobe Illustrator 26.5.0, SVG Export Plug-In . SVG Version: 6.00 Build 0)  -->
<svg version="1.1" id="Layer_1" xmlns="http://www.w3.org/2000/svg" xmlns:xlink="http://www.w3.org/1999/xlink" x="0px" y="0px"
	 viewBox="0 0 290 71.8" style="enable-background:new 0 0 290 71.8;" xml:space="preserve">
<style type="text/css">
	.st0{fill:#231F20;}
</style>
<g>
	<g>
		<path class="st0" d="M18.9,35.8c0-0.7,0.1-1.4,0.2-2.1H0.1C0,34.4,0,35,0,35.7c0,0.6,0,1.3,0.1,1.9h19C19,37,18.9,36.4,18.9,35.8"
			/>
		<g>
			<path class="st0" d="M25.2,4.3c0.7-0.1,1.4-0.3,2.1-0.4l3.3,19c-0.7,0.1-1.4,0.2-2.1,0.4L25.2,4.3z"/>
			<path class="st0" d="M24.4,25.3c0.7-0.5,1.4-0.9,2.2-1.3L17,7.3c-0.8,0.4-1.5,0.8-2.2,1.3L24.4,25.3z"/>
			<path class="st0" d="M44.8,35.8c0,7.1-5.8,12.9-12.9,12.9c-6.4,0-11.7-4.6-12.7-10.7L1.2,44.6c0.4,1.4,0.9,2.8,1.5,4.1l17.8-6.5
				L6,54.4c0.9,1.3,1.9,2.5,3,3.6l13.6-11.5l-8.9,15.5c1.4,1,2.9,1.9,4.5,2.6l8.3-14.6l-2.9,16.6c1.8,0.5,3.6,0.8,5.5,1l2.7-15.5
				l2.7,15.5c2-0.2,3.9-0.5,5.8-1l-2.5-14.4L45,64.9c2-0.9,3.9-2,5.6-3.3L44,50l10.2,8.6c1.6-1.6,3.1-3.4,4.3-5.3l-9.1-7.7l11.1,4.1
				c1-2.1,1.8-4.4,2.4-6.8l-9.8-3.6l10.4,0c0.1-1.2,0.2-2.4,0.2-3.6c0-1.4-0.1-2.8-0.3-4.2H44C44.5,32.9,44.8,34.3,44.8,35.8"/>
			<path class="st0" d="M19.3,32.9c0.3-1.1,0.7-2.2,1.2-3.2L2.6,23.1c-0.4,1.1-0.8,2.1-1.2,3.3L19.3,32.9z"/>
			<path class="st0" d="M55.9,14.6L41.3,27c0.4,0.4,0.7,0.8,1,1.2l14.6-12.3C56.5,15.4,56.2,15,55.9,14.6"/>
			<path class="st0" d="M48.6,8.4c-0.5-0.3-1-0.6-1.6-0.9l-9.6,16.7c0.5,0.3,1.1,0.6,1.6,0.9L48.6,8.4z"/>
			<path class="st0" d="M23.1,26.3L8.5,14c-0.7,0.7-1.3,1.5-1.9,2.3l14.6,12.3C21.7,27.8,22.4,27,23.1,26.3"/>
			<path class="st0" d="M33.1,23c0.7,0.1,1.3,0.2,1.9,0.3l3.3-19c-0.6-0.1-1.3-0.2-1.9-0.3L33.1,23z"/>
		</g>
	</g>
	<path class="st0" d="M113.8,28.9c-0.5-0.8-1.2-1.5-2.1-1.9c-0.9-0.5-1.9-0.7-2.9-0.7c-1.2,0-2.2,0.2-3.2,0.7c-1,0.5-1.9,1.1-2.6,2
		c-0.7,0.8-1.3,1.8-1.7,3c-0.4,1.2-0.6,2.4-0.6,3.7c0,1.4,0.2,2.6,0.6,3.8c0.4,1.1,1,2.1,1.7,2.9c0.7,0.8,1.6,1.5,2.5,1.9
		c1,0.5,2.1,0.7,3.3,0.7c1.1,0,2.2-0.2,3.1-0.7c0.9-0.4,1.6-1.1,2.1-1.9l0.1,2h5.8V26.8h-5.8L113.8,28.9z M112.8,38.5
		c-0.7,0.7-1.5,1.1-2.6,1.1s-1.9-0.4-2.6-1.1c-0.7-0.7-1-1.7-1-2.8c0-1.2,0.3-2.1,1-2.8c0.7-0.7,1.5-1.1,2.6-1.1s1.9,0.4,2.6,1.1
		c0.7,0.7,1,1.7,1,2.8C113.8,36.8,113.5,37.8,112.8,38.5z"/>
	<path class="st0" d="M96.9,31.3c0.7-1.2,1-2.6,1-4c0-1.4-0.2-2.6-0.7-3.7c-0.5-1.1-1.1-2-2-2.8c-0.9-0.8-1.9-1.3-3.2-1.7
		c-1.3-0.4-2.7-0.6-4.3-0.6h-9.4v26H85v-8.4h1.9l1.5,0l4.6,8.4h7.5L94,34.2C95.2,33.5,96.2,32.5,96.9,31.3z M86.8,30.9H85v-7.2h2
		c3,0,4.4,1.2,4.4,3.6C91.4,29.7,89.8,30.9,86.8,30.9z"/>
	<path class="st0" d="M216.9,28.9c-0.9-0.8-1.9-1.5-3.1-2c-1.2-0.5-2.5-0.7-3.9-0.7c-1.4,0-2.7,0.2-3.9,0.7c-1.2,0.5-2.2,1.1-3.1,2
		c-0.9,0.8-1.5,1.8-2,3c-0.5,1.1-0.7,2.4-0.7,3.7c0,1.3,0.2,2.6,0.7,3.7c0.5,1.1,1.2,2.1,2,3c0.9,0.8,1.9,1.5,3.1,2
		c1.2,0.5,2.5,0.7,3.9,0.7c1.4,0,2.7-0.2,3.9-0.7c1.2-0.5,2.2-1.1,3.1-2c0.9-0.8,1.5-1.8,2-3c0.5-1.1,0.7-2.4,0.7-3.7
		c0-1.3-0.2-2.6-0.7-3.7C218.4,30.8,217.7,29.8,216.9,28.9z M212.7,38.7c-0.7,0.8-1.6,1.2-2.8,1.2c-1.2,0-2.1-0.4-2.8-1.2
		c-0.7-0.8-1.1-1.8-1.1-3c0-1.3,0.4-2.3,1.1-3c0.7-0.8,1.6-1.2,2.8-1.2c1.2,0,2.1,0.4,2.8,1.2c0.7,0.8,1.1,1.8,1.1,3
		C213.8,36.9,213.4,37.9,212.7,38.7z"/>
	<path class="st0" d="M238,28.2c-1-1.3-2.6-1.9-4.6-1.9c-1.2,0-2.2,0.2-3.1,0.7c-0.9,0.5-1.5,1.2-2,2l-0.1-2.2h-6v17.7h6.2v-9.3
		c0-1.1,0.2-1.9,0.7-2.5c0.4-0.6,1.1-0.9,2-0.9c1.6,0,2.4,1,2.4,3.1v9.6h6.2V33.7C239.5,31.3,239,29.4,238,28.2z"/>
	<path class="st0" d="M198.1,35.1c0-1.4-0.2-2.6-0.6-3.7c-0.4-1.1-1-2-1.7-2.8c-0.8-0.8-1.7-1.4-2.7-1.8c-1.1-0.4-2.3-0.6-3.6-0.6
		c-1.4,0-2.6,0.2-3.7,0.7c-1.1,0.5-2.1,1.1-2.9,1.9c-0.8,0.8-1.5,1.8-1.9,3c-0.4,1.2-0.7,2.4-0.7,3.8c0,1.4,0.2,2.7,0.7,3.9
		c0.5,1.2,1.2,2.2,2.1,3c0.9,0.8,2,1.4,3.4,1.9c1.3,0.4,2.8,0.7,4.4,0.7c1.4,0,2.7-0.2,4-0.5c1.3-0.3,2.3-0.8,3.2-1.4l-1.9-3.9
		c-0.7,0.3-1.5,0.6-2.4,0.7c-0.9,0.2-1.6,0.3-2.3,0.3c-2.8,0-5.3-1-5.9-3h12.4C198,36.7,198.1,35.9,198.1,35.1z M185.5,34
		c0.5-2.4,1.8-3.6,3.9-3.6c1,0,1.9,0.3,2.5,0.9c0.6,0.6,1,1.5,1.2,2.6H185.5z"/>
	<path class="st0" d="M171.4,26.3c-1.1,0-2.1,0.2-2.9,0.6c-0.9,0.4-1.6,1-2.1,1.8V18.5h-6.2v26h6.2v-9.3c0-1.1,0.2-1.9,0.7-2.5
		c0.4-0.6,1.1-0.9,2-0.9c1.6,0,2.4,1,2.4,3.1v9.6h6.2V33.7c0-2.5-0.5-4.3-1.6-5.6C174.9,26.9,173.4,26.3,171.4,26.3z"/>
	<path class="st0" d="M156.4,31.8l1.5-5h-5.7v-4.6h-6.2v4.6h-3v5h3v6.3c0,4.6,2.2,6.9,6.7,6.9c1,0,1.9-0.1,2.8-0.2
		c0.9-0.2,1.7-0.4,2.3-0.7l-0.6-4.8c-0.9,0.3-1.8,0.5-2.7,0.5c-0.8,0-1.4-0.2-1.7-0.6c-0.3-0.4-0.5-1.2-0.5-2.2v-5.2H156.4z"/>
	<polygon class="st0" points="141.6,26.8 135,26.8 131.6,36.2 128,26.8 121.3,26.8 128.5,43.5 125.3,50.3 131.4,50.3 	"/>
	<g>
		<path class="st0" d="M111.7,61.2c0.4-0.6,0.5-1.2,0.5-2c0-1.4-0.4-2.4-1.3-3.2c-0.9-0.8-2.1-1.1-3.6-1.1h-4.6v12.7h3.2v-4.1h1.7
			l2.2,4.1h3.7l-3.1-5C110.9,62.2,111.3,61.8,111.7,61.2z M106.8,61h-0.9v-3.7h1c1.4,0,2.2,0.6,2.2,1.8C109,60.4,108.2,61,106.8,61z
			"/>
		<polygon class="st0" points="112.5,57.6 116.4,57.6 116.4,67.6 119.8,67.6 119.8,57.6 123.7,57.6 123.7,54.9 112.5,54.9 		"/>
		<polygon class="st0" points="136.3,54.9 132.5,54.9 130.2,58.8 128,54.9 124.1,54.9 128.2,61 123.8,67.6 127.6,67.6 130,63.3 
			132.6,67.6 136.5,67.6 132.2,61.1 		"/>
		<path class="st0" d="M81.7,54.9l-5.2,12.7h1.5l1.5-3.8h5.8l1.5,3.8h1.6l-5.2-12.7H81.7z M80.1,62.5l2.4-6.1l2.4,6.1H80.1z"/>
		<path class="st0" d="M94.6,59c-0.6,0-1.2,0.1-1.7,0.5c-0.5,0.3-0.9,0.7-1.1,1.3l0-1.5h-1.3v8.3h1.4V63c0-0.9,0.2-1.5,0.6-2
			c0.4-0.5,1-0.7,1.8-0.7c0.7,0,1.2,0.2,1.5,0.6c0.3,0.4,0.5,1.1,0.5,1.9v4.8h1.4v-5c0-1.1-0.3-2-0.8-2.6C96.3,59.3,95.6,59,94.6,59
			z"/>
		<path class="st0" d="M147.3,60.8c0.6-0.2,1.1-0.6,1.4-1.1c0.4-0.5,0.5-1,0.5-1.7c0-1-0.3-1.8-1-2.4c-0.7-0.6-1.6-0.9-2.8-0.9H141
			v12.7h4.6c1.3,0,2.4-0.3,3.2-1c0.8-0.6,1.1-1.5,1.1-2.7c0-0.8-0.2-1.5-0.7-2C148.8,61.3,148.1,61,147.3,60.8z M142.5,56.1h2.8
			c0.8,0,1.4,0.2,1.9,0.5c0.4,0.3,0.6,0.8,0.6,1.5c0,0.8-0.2,1.3-0.6,1.7c-0.4,0.4-1.1,0.6-2,0.6h-2.7V56.1z M147.7,65.7
			c-0.5,0.4-1.1,0.6-2,0.6h-3.3v-4.8h3c1,0,1.7,0.2,2.2,0.6c0.5,0.4,0.7,1,0.7,1.8C148.4,64.7,148.2,65.3,147.7,65.7z"/>
		<path class="st0" d="M157.8,63.8c0,0.9-0.2,1.5-0.6,2c-0.4,0.5-1,0.7-1.7,0.7c-0.7,0-1.2-0.2-1.5-0.6c-0.3-0.4-0.5-1-0.5-1.9v-4.9
			H152v5.3c0,1.1,0.3,1.9,0.8,2.5c0.5,0.6,1.2,0.9,2.2,0.9c0.7,0,1.3-0.1,1.8-0.4c0.5-0.3,0.9-0.7,1.1-1.2l0,1.4h1.3v-8.3h-1.4V63.8
			z"/>
		<path class="st0" d="M164.3,62.7c-0.7-0.2-1.2-0.4-1.4-0.6c-0.3-0.2-0.4-0.5-0.4-0.8c0-0.4,0.2-0.6,0.5-0.8
			c0.3-0.2,0.7-0.3,1.3-0.3c0.8,0,1.6,0.2,2.3,0.7l0.2-1.2c-0.3-0.2-0.7-0.4-1.2-0.5c-0.5-0.1-0.9-0.2-1.4-0.2c-1,0-1.7,0.2-2.3,0.7
			c-0.6,0.4-0.8,1-0.8,1.8c0,0.6,0.2,1.1,0.6,1.5c0.4,0.4,1.1,0.7,2,1c0.5,0.2,1,0.3,1.2,0.4c0.3,0.1,0.5,0.3,0.6,0.4
			c0.1,0.2,0.2,0.4,0.2,0.6c0,0.4-0.2,0.7-0.5,0.9c-0.3,0.2-0.8,0.3-1.5,0.3c-0.4,0-0.9-0.1-1.4-0.2c-0.5-0.2-0.9-0.4-1.2-0.6
			l-0.2,1.3c0.3,0.2,0.7,0.4,1.2,0.6c0.5,0.1,1,0.2,1.6,0.2c1,0,1.8-0.2,2.5-0.7c0.6-0.5,0.9-1.1,0.9-1.8c0-0.7-0.2-1.2-0.7-1.6
			C166.1,63.3,165.3,63,164.3,62.7z"/>
		<path class="st0" d="M169.6,55c-0.3,0-0.5,0.1-0.7,0.3c-0.2,0.2-0.3,0.4-0.3,0.7c0,0.3,0.1,0.5,0.3,0.7c0.2,0.2,0.4,0.3,0.7,0.3
			c0.3,0,0.5-0.1,0.7-0.3c0.2-0.2,0.3-0.4,0.3-0.7c0-0.3-0.1-0.5-0.3-0.7C170.1,55.1,169.9,55,169.6,55z"/>
		<rect x="168.9" y="59.2" class="st0" width="1.4" height="8.3"/>
		<path class="st0" d="M177,59c-0.6,0-1.2,0.1-1.7,0.5c-0.5,0.3-0.9,0.7-1.1,1.3l0-1.5h-1.3v8.3h1.4V63c0-0.9,0.2-1.5,0.6-2
			c0.4-0.5,1-0.7,1.8-0.7c0.7,0,1.2,0.2,1.5,0.6c0.3,0.4,0.5,1.1,0.5,1.9v4.8h1.4v-5c0-1.1-0.3-2-0.8-2.6C178.8,59.3,178,59,177,59z
			"/>
		<path class="st0" d="M186.2,59c-0.8,0-1.5,0.2-2.2,0.6c-0.6,0.4-1.1,0.9-1.5,1.6c-0.3,0.7-0.5,1.4-0.5,2.3c0,1.4,0.4,2.4,1.2,3.2
			c0.8,0.8,2,1.2,3.4,1.2c0.6,0,1.2-0.1,1.7-0.2c0.6-0.1,1-0.3,1.4-0.6l-0.2-1.2c-0.9,0.5-1.9,0.7-2.9,0.7c-1,0-1.7-0.2-2.3-0.7
			c-0.6-0.5-0.9-1.1-1-2h6.5c0-0.1,0-0.3,0-0.4c0-0.1,0-0.3,0-0.4c0-1.2-0.3-2.2-1-3C188.2,59.3,187.3,59,186.2,59z M183.4,62.7
			c0.1-0.8,0.4-1.4,0.9-1.9c0.5-0.5,1.1-0.7,1.8-0.7c0.8,0,1.3,0.2,1.8,0.7c0.4,0.4,0.7,1.1,0.7,1.9H183.4z"/>
		<path class="st0" d="M194.8,62.7c-0.7-0.2-1.2-0.4-1.4-0.6c-0.3-0.2-0.4-0.5-0.4-0.8c0-0.4,0.2-0.6,0.5-0.8
			c0.3-0.2,0.7-0.3,1.3-0.3c0.8,0,1.6,0.2,2.3,0.7l0.2-1.2c-0.3-0.2-0.7-0.4-1.2-0.5c-0.5-0.1-0.9-0.2-1.4-0.2c-1,0-1.7,0.2-2.3,0.7
			c-0.6,0.4-0.8,1-0.8,1.8c0,0.6,0.2,1.1,0.6,1.5c0.4,0.4,1.1,0.7,2,1c0.5,0.2,1,0.3,1.2,0.4c0.3,0.1,0.5,0.3,0.6,0.4
			c0.1,0.2,0.2,0.4,0.2,0.6c0,0.4-0.2,0.7-0.5,0.9c-0.3,0.2-0.8,0.3-1.5,0.3c-0.4,0-0.9-0.1-1.4-0.2c-0.5-0.2-0.9-0.4-1.2-0.6
			l-0.2,1.3c0.3,0.2,0.7,0.4,1.2,0.6c0.5,0.1,1,0.2,1.6,0.2c1,0,1.8-0.2,2.5-0.7c0.6-0.5,0.9-1.1,0.9-1.8c0-0.7-0.2-1.2-0.7-1.6
			C196.6,63.3,195.9,63,194.8,62.7z"/>
		<path class="st0" d="M204.5,63.7c-0.4-0.4-1.2-0.7-2.2-1.1c-0.7-0.2-1.2-0.4-1.4-0.6c-0.3-0.2-0.4-0.5-0.4-0.8
			c0-0.4,0.2-0.6,0.5-0.8c0.3-0.2,0.7-0.3,1.3-0.3c0.8,0,1.6,0.2,2.3,0.7l0.2-1.2c-0.3-0.2-0.7-0.4-1.2-0.5
			c-0.5-0.1-0.9-0.2-1.4-0.2c-1,0-1.7,0.2-2.3,0.7c-0.6,0.4-0.8,1-0.8,1.8c0,0.6,0.2,1.1,0.6,1.5c0.4,0.4,1.1,0.7,2,1
			c0.5,0.2,1,0.3,1.2,0.4c0.3,0.1,0.5,0.3,0.6,0.4c0.1,0.2,0.2,0.4,0.2,0.6c0,0.4-0.2,0.7-0.5,0.9c-0.3,0.2-0.8,0.3-1.5,0.3
			c-0.4,0-0.9-0.1-1.4-0.2c-0.5-0.2-0.9-0.4-1.2-0.6l-0.2,1.3c0.3,0.2,0.7,0.4,1.2,0.6c0.5,0.1,1,0.2,1.6,0.2c1,0,1.8-0.2,2.5-0.7
			c0.6-0.5,0.9-1.1,0.9-1.8C205.1,64.7,204.9,64.1,204.5,63.7z"/>
	</g>
</g>
</svg>
