<?xml version="1.0" encoding="UTF-8" standalone="no"?>
<!DOCTYPE svg PUBLIC "-//W3C//DTD SVG 1.1//EN" "http://www.w3.org/Graphics/SVG/1.1/DTD/svg11.dtd">
<svg width="100%" height="100%" viewBox="0 0 208 108" version="1.1" xmlns="http://www.w3.org/2000/svg" xmlns:xlink="http://www.w3.org/1999/xlink" xml:space="preserve" xmlns:serif="http://www.serif.com/" style="fill-rule:evenodd;clip-rule:evenodd;stroke-linejoin:round;stroke-miterlimit:2;">
    <g id="g3748" transform="matrix(1.25,0,0,-1.25,-527.431,694.637)">
        <g id="Layer-1" serif:id="Layer 1">
            <g id="g37481" serif:id="g3748">
                <g id="g3750">
                    <clipPath id="_clip1">
                        <rect x="422.852" y="472.342" width="164.442" height="81.1"/>
                    </clipPath>
                    <g clip-path="url(#_clip1)">
                        <g id="g3756" transform="matrix(1,0,0,1,435.396,513.926)">
                            <path id="path3758" d="M0,0C2.315,0 3.322,0.598 3.322,2.427C3.322,4.107 2.277,4.854 0.523,4.854L-2.8,4.854L-2.8,0L0,0ZM10.902,-6.832L13.291,-12.619L3.434,-12.619L0.97,-6.458C0.56,-5.413 -0.038,-4.966 -1.307,-4.966L-2.8,-4.966L-2.8,-12.619L-12.545,-12.619L-12.545,10.342L2.016,10.342C9.856,10.342 12.619,7.691 12.619,2.502C12.619,-1.008 10.714,-2.874 8.138,-3.92C9.258,-4.331 10.23,-5.152 10.902,-6.832" style="fill:rgb(0,169,79);fill-rule:nonzero;"/>
                        </g>
                        <g id="g3760" transform="matrix(1,0,0,1,450.705,524.267)">
                            <path id="path3762" d="M0,0L20.87,0L20.87,-6.496L9.744,-6.496L9.744,-8.699L19.078,-8.699L19.078,-14.15L9.744,-14.15L9.744,-16.464L21.319,-16.464L21.319,-22.961L0,-22.961L0,0Z" style="fill:rgb(0,169,79);fill-rule:nonzero;"/>
                        </g>
                        <g id="g3764" transform="matrix(1,0,0,1,473.369,512.768)">
                            <path id="path3766" d="M0,0C0,7.802 4.48,11.499 11.761,11.499L20.534,11.499L20.534,5.041L14.598,5.041C11.238,5.041 9.968,4.182 9.968,0C9.968,-4.182 11.238,-5.002 14.598,-5.002L27.323,-5.002L27.323,-11.462L11.761,-11.462C4.48,-11.462 0,-7.766 0,0" style="fill:rgb(0,169,79);fill-rule:nonzero;"/>
                        </g>
                        <g id="g3768" transform="matrix(1,0,0,1,496.306,524.267)">
                            <path id="path3770" d="M0,0L10.454,0L13.515,-6.832C14.076,-8.102 14.598,-10.193 14.598,-10.193C14.598,-10.193 15.158,-8.064 15.681,-6.832L18.482,0L27.852,0L18.966,-17.882L18.966,-29.606L9.222,-29.606L9.222,-17.882L0,0Z" style="fill:rgb(0,169,79);fill-rule:nonzero;"/>
                        </g>
                        <g id="g3772" transform="matrix(1,0,0,1,522.963,512.768)">
                            <path id="path3774" d="M0,0C0,7.802 4.481,11.499 11.761,11.499L20.534,11.499L20.534,5.041L14.598,5.041C11.238,5.041 9.969,4.182 9.969,0C9.969,-4.182 11.238,-5.002 14.598,-5.002L20.534,-5.002L20.534,-11.462L11.761,-11.462C4.481,-11.462 0,-7.766 0,0" style="fill:rgb(0,169,79);fill-rule:nonzero;"/>
                        </g>
                        <g id="g3776" transform="matrix(1,0,0,1,546.449,529.569)">
                            <path id="path3778" d="M0,0L9.744,0L9.744,-21.766L16.801,-21.766L16.801,-28.263L0,-28.263L0,0Z" style="fill:rgb(0,169,79);fill-rule:nonzero;"/>
                        </g>
                        <g id="g3780" transform="matrix(1,0,0,1,565.976,524.267)">
                            <path id="path3782" d="M0,0L20.87,0L20.87,-6.496L9.744,-6.496L9.744,-8.699L19.078,-8.699L19.078,-14.15L9.744,-14.15L9.744,-16.464L21.318,-16.464L21.318,-22.961L0,-22.961L0,0Z" style="fill:rgb(0,169,79);fill-rule:nonzero;"/>
                        </g>
                        <g id="g3784" transform="matrix(1,0,0,1,468.133,491.878)">
                            <path id="path3786" d="M0,0C-0.666,-2.23 -0.908,-3.439 -1.183,-5.35C1.21,-1.778 3.978,1.158 6.772,3.202C8.374,4.352 10.271,4.932 12.404,4.938C13.013,4.941 13.5,4.942 14.473,4.753C13.498,3.542 12.973,2.458 12.35,0.294C11.873,-1.554 11.589,-2.827 11.442,-4.355C10.381,-4.677 9.81,-4.806 8.897,-4.809C7.618,-4.812 6.752,-4.37 6.482,-3.479C6.27,-2.781 6.513,-1.571 7.156,0.531C4.925,-0.558 2.987,-2.41 0.617,-5.853C-1.341,-8.85 -2.642,-11.59 -3.821,-15.348C-4.658,-18.214 -4.825,-18.47 -5.617,-18.472C-6.346,-18.474 -7.028,-17.84 -7.375,-16.695C-8.358,-13.453 -7.22,-4.541 -5.228,0.556C-4.003,3.55 -3.038,4.189 0.738,4.201C0.982,4.202 1.042,4.202 1.042,4.202C1.165,4.202 1.347,4.202 1.47,4.203C0.938,2.738 0.576,1.719 0,0" style="fill:rgb(0,102,179);fill-rule:nonzero;"/>
                        </g>
                        <g id="g3788" transform="matrix(1,0,0,1,502.831,476.281)">
                            <path id="path3790" d="M0,0C-1.912,-2.358 -4.122,-3.938 -4.729,-3.938C-5.461,-3.942 -6.118,-3.181 -6.483,-1.973C-7.293,0.698 -7.085,4.834 -5.964,10.182L-5.787,11.01C-6.262,10.564 -6.531,10.244 -6.614,10.116C-6.902,9.861 -7.297,9.351 -8.52,7.757C-8.957,7.182 -9.35,6.672 -9.785,6.098L-13.474,1.378C-14.222,0.42 -14.926,-0.472 -15.755,-1.557C-17.124,-3.279 -17.967,-3.918 -18.819,-3.92C-19.794,-3.923 -20.554,-3.226 -20.978,-1.828C-21.691,0.524 -21.201,5.743 -19.682,11.794C-18.662,15.869 -17.718,17.782 -16.532,18.294C-15.878,18.55 -13.987,18.748 -11.751,18.818C-14.006,13.784 -15.882,5.698 -15.246,3.599C-15.15,3.282 -14.989,3.154 -14.745,3.155C-14.625,3.155 -14.399,3.221 -14.274,3.411L-13.57,4.305C-12.657,5.516 -11.745,6.728 -10.771,7.94L-7.89,11.514L-5.114,15.022C-2.134,18.468 -2.472,18.974 2.501,18.862C0.43,15.039 -0.99,8.862 -1.096,3.581C-0.643,3.901 -0.416,4.155 -0.273,4.282L0.965,5.432C1.12,5.23 0.176,0.215 0,0" style="fill:rgb(0,102,179);fill-rule:nonzero;"/>
                        </g>
                        <g id="g3792" transform="matrix(1,0,0,1,540.888,500.306)">
                            <path id="path3794" d="M0,0C-2.586,-5.545 -3.566,-8.348 -4.892,-13.824C-4.559,-13.314 -4.229,-12.994 -4.062,-12.739L-3.419,-11.846C-2.774,-10.954 -0.77,-8.719 0.323,-7.698C3.316,-4.698 6.266,-2.97 8.278,-2.964C9.495,-2.961 10.399,-3.53 10.727,-4.61C10.958,-5.374 10.867,-6.075 10.43,-7.856C9.386,-12.251 9.067,-14.416 8.848,-19.126L9.754,-18.294C12.312,-15.87 13.672,-14.72 16.176,-12.93C17.778,-11.78 18.455,-11.396 18.942,-11.394C19.37,-11.392 19.75,-11.646 19.865,-12.026C20.021,-12.537 19.834,-12.726 18.726,-13.495C15.029,-16.18 10.286,-20.646 8.251,-23.391C6.153,-26.324 5.969,-26.515 5.42,-26.518C4.749,-26.519 4.069,-25.885 3.742,-24.805C2.797,-21.69 3.066,-16.342 4.398,-10.485C4.79,-8.957 4.816,-8.638 4.718,-8.322C4.623,-8.004 4.302,-7.75 3.998,-7.751C2.901,-7.754 0.164,-9.99 -1.91,-12.605C-4.398,-15.858 -6.161,-19.491 -7.457,-24.267C-8.058,-26.306 -8.266,-26.625 -8.874,-26.626C-9.484,-26.628 -10.003,-26.122 -10.254,-25.294C-11.45,-21.353 -10.708,-13.142 -8.558,-6.963C-7.259,-3.205 -5.742,0.237 -3.356,4.634C1.101,12.858 2.357,13.943 7.82,14.023C4.283,8.796 2.654,5.926 0,0" style="fill:rgb(0,102,179);fill-rule:nonzero;"/>
                        </g>
                        <g id="g3796" transform="matrix(1,0,0,1,497.225,522.082)">
                            <path id="path3798" d="M0,0C0.989,-1.714 2.389,-2.182 3.806,-2.182L11.418,-2.182L7.531,6.964L-4.021,6.962L0,0Z" style="fill:rgb(0,169,79);fill-rule:nonzero;"/>
                        </g>
                        <g id="g3800" transform="matrix(1,0,0,1,501.246,542.98)">
                            <path id="path3802" d="M0,0L-10.561,-2.044L-7.642,-3.729L-9.555,-7.042C-10.239,-8.228 -10.486,-9.698 -9.842,-10.814L-4.562,-19.96C-5.378,-18.55 -4.57,-16.701 -3.772,-15.318L0.279,-8.304L3.509,-10.169L0,0Z" style="fill:rgb(111,190,74);fill-rule:nonzero;"/>
                        </g>
                        <g id="g3804" transform="matrix(1,0,0,1,529.421,531.62)">
                            <path id="path3806" d="M0,0C0.99,1.714 0.694,3.161 -0.015,4.387L-3.02,9.594L-10.941,5.022L-4.02,-6.962L0,0Z" style="fill:rgb(0,169,79);fill-rule:nonzero;"/>
                        </g>
                        <g id="g3808" transform="matrix(1,0,0,1,516.365,532.778)">
                            <path id="path3810" d="M0,0L-7.055,-8.123L0,-16.247L0,-12.877L3.822,-12.877C5.191,-12.877 6.59,-12.357 7.235,-11.242L12.514,-2.095C11.699,-3.506 9.697,-3.73 8.1,-3.73L0,-3.73L0,0Z" style="fill:rgb(111,190,74);fill-rule:nonzero;"/>
                        </g>
                        <g id="g3812" transform="matrix(1,0,0,1,505.064,553.442)">
                            <path id="path3814" d="M0,0C-1.978,0 -3.083,-0.978 -3.792,-2.205L-6.798,-7.412L1.122,-11.985L8.04,0L0,0Z" style="fill:rgb(0,169,79);fill-rule:nonzero;"/>
                        </g>
                        <g id="g3816" transform="matrix(1,0,0,1,506.146,553.442)">
                            <path id="path3818" d="M0,0C1.629,0 2.827,-1.622 3.624,-3.005L7.674,-10.022L4.443,-11.887L15.006,-13.934L18.514,-3.762L15.596,-5.446L13.683,-2.137C12.999,-0.951 11.849,0 10.561,0L0,0Z" style="fill:rgb(111,190,74);fill-rule:nonzero;"/>
                        </g>
                        <g id="g3820" transform="matrix(1,0,0,1,508.361,480.047)">
                            <path id="path3822" d="M0,0C-0.102,-0.585 -0.424,-1.856 0.162,-3.329C0.49,-4.154 1.525,-5.892 6.094,-5.892C9.604,-5.892 13.082,-4.214 13.082,-1.406C13.082,-0.183 12.549,0.32 11.009,1.594L10.941,1.654C6.446,5.623 4.765,7.107 4.765,9.696C4.765,12.986 9.666,16.09 15.253,16.338C18.577,16.469 21.156,15.447 21.886,13.77C21.886,13.77 21.989,13.558 21.943,13.328C21.898,13.098 17.23,9.118 17.347,9.346C17.464,9.575 18.23,10.906 18.23,10.906C18.441,11.314 18.574,11.663 18.624,12.228C18.729,13.399 18.502,14.175 15.586,14.175C13.256,14.175 10.705,12.652 10.705,11.421L10.694,11.31C10.682,10.674 10.936,10.04 11.464,9.434C11.798,8.938 13.215,7.56 14.251,6.554C14.798,6.022 15.271,5.562 15.502,5.316C17.087,3.656 18.555,1.862 18.555,0.002C18.555,-3.097 14.431,-7.682 5.582,-7.682C1.922,-7.682 -2.761,-6.27 -4.398,-3.17L-4.454,-3.062L-4.426,-2.944C-2.704,-1.614 -3.397,-2.004 -0.686,-0.35" style="fill:rgb(0,102,179);fill-rule:nonzero;"/>
                        </g>
                        <g id="g3824" transform="matrix(1,0,0,1,551.305,474.567)">
                            <path id="path3826" d="M0,0C0.224,-0.138 0.553,-0.253 0.899,-0.253C1.411,-0.253 1.712,0.018 1.712,0.41C1.712,0.772 1.505,0.98 0.979,1.182C0.346,1.406 -0.046,1.735 -0.046,2.282C-0.046,2.887 0.455,3.337 1.21,3.337C1.608,3.337 1.896,3.246 2.069,3.147L1.93,2.738C1.803,2.807 1.545,2.922 1.193,2.922C0.662,2.922 0.461,2.605 0.461,2.34C0.461,1.977 0.698,1.798 1.234,1.591C1.89,1.338 2.225,1.02 2.225,0.45C2.225,-0.15 1.78,-0.668 0.864,-0.668C0.49,-0.668 0.081,-0.559 -0.127,-0.42L0,0Z" style="fill:rgb(0,102,179);fill-rule:nonzero;"/>
                        </g>
                        <g id="g3828" transform="matrix(1,0,0,1,557.493,475.662)">
                            <path id="path3830" d="M0,0C-0.029,0.542 -0.064,1.194 -0.058,1.678L-0.075,1.678C-0.208,1.222 -0.37,0.738 -0.565,0.202L-1.251,-1.682L-1.632,-1.682L-2.26,0.167C-2.445,0.715 -2.6,1.216 -2.71,1.678L-2.721,1.678C-2.733,1.194 -2.762,0.542 -2.797,-0.04L-2.9,-1.706L-3.378,-1.706L-3.107,2.179L-2.468,2.179L-1.804,0.3C-1.643,-0.179 -1.51,-0.605 -1.413,-1.009L-1.395,-1.009C-1.298,-0.617 -1.159,-0.19 -0.986,0.3L-0.294,2.179L0.346,2.179L0.587,-1.706L0.098,-1.706L0,0Z" style="fill:rgb(0,102,179);fill-rule:nonzero;"/>
                        </g>
                    </g>
                </g>
            </g>
        </g>
    </g>
</svg>
