<?xml version="1.0" encoding="UTF-8" standalone="no"?>
<!DOCTYPE svg PUBLIC "-//W3C//DTD SVG 1.1//EN" "http://www.w3.org/Graphics/SVG/1.1/DTD/svg11.dtd">
<svg width="100%" height="100%" viewBox="0 0 317 189" version="1.1" xmlns="http://www.w3.org/2000/svg" xmlns:xlink="http://www.w3.org/1999/xlink" xml:space="preserve" xmlns:serif="http://www.serif.com/" style="fill-rule:evenodd;clip-rule:evenodd;stroke-linejoin:round;stroke-miterlimit:2;">
    <g id="Layer_x0020_1">
        <g id="_2960842613168">
            <path d="M23.917,94.709C23.917,98.641 24.903,102.079 26.879,105.021C28.852,107.963 31.804,109.431 35.734,109.431C38.372,109.431 40.68,108.773 42.654,107.454C44.628,106.138 46.126,104.412 47.148,102.279C48.169,100.146 48.682,97.893 48.682,95.517C48.682,91.194 47.619,87.627 45.497,84.816C43.374,82.005 40.12,80.6 35.735,80.6C32.044,80.6 29.151,82.051 27.059,84.954C24.964,87.859 23.918,91.11 23.918,94.709L23.917,94.709ZM49.157,118.077C46.994,120.524 44.778,122.293 42.504,123.386C40.232,124.481 37.45,125.027 34.155,125.027C27.667,125.027 21.813,122.904 16.593,118.659C9.528,112.784 5.998,104.888 5.998,94.971C5.998,85.815 9.122,78.373 15.373,72.645C20.83,67.549 26.971,65 33.797,65C37.071,65 39.859,65.519 42.16,66.555C44.463,67.591 46.835,69.276 49.275,71.605C51.1,67.517 53.987,65.472 57.937,65.472C60.497,65.472 62.659,66.298 64.426,67.946C66.191,69.595 67.075,71.616 67.075,74.007L67.075,114.765C67.075,117.51 66.236,119.848 64.56,121.787C62.882,123.722 60.636,124.691 57.819,124.691C53.711,124.691 50.823,122.486 49.156,118.074L49.157,118.077Z" style="fill:rgb(237,50,55);fill-rule:nonzero;"/>
            <path d="M111.106,89.162C109.202,82.175 105.133,78.682 98.902,78.682C93.406,78.682 89.427,82.176 86.967,89.162L111.106,89.162ZM87.562,100.561C88.812,103.906 90.598,106.328 92.919,107.824C95.419,109.581 98.227,110.457 101.343,110.457C104.835,110.457 108.207,109.701 111.462,108.186L116.582,105.801C117.435,105.395 118.577,105.126 120.005,104.996C121.275,104.996 122.515,105.313 123.726,105.942C124.937,106.572 125.899,107.423 126.613,108.497C127.328,109.571 127.685,110.684 127.685,111.833C127.685,114.962 125.284,117.806 120.482,120.361C114.628,123.473 107.922,125.029 100.362,125.029C95.403,125.029 90.713,124.119 86.298,122.304C81.883,120.488 78.117,117.829 75.002,114.327C70.538,109.266 68.306,102.734 68.306,94.726C68.306,89.388 69.661,84.44 72.369,79.88C75.077,75.321 78.798,71.702 83.53,69.024C88.263,66.347 93.466,65.006 99.141,65.006C104.579,65.006 109.568,66.267 114.113,68.79C118.656,71.313 122.219,74.727 124.798,79.03C127.377,83.333 128.667,87.97 128.667,92.94C128.667,95.594 128.076,97.527 126.894,98.742C125.713,99.958 123.745,100.565 120.986,100.565L87.561,100.565L87.562,100.561Z" style="fill:rgb(237,50,55);fill-rule:nonzero;"/>
            <path d="M218.896,94.709C218.896,98.641 219.882,102.079 221.856,105.021C223.831,107.963 226.783,109.431 230.712,109.431C233.351,109.431 235.656,108.773 237.633,107.454C239.607,106.138 241.105,104.412 242.127,102.279C243.148,100.146 243.66,97.893 243.66,95.517C243.66,91.194 242.598,87.627 240.476,84.816C238.352,82.005 235.097,80.6 230.714,80.6C227.022,80.6 224.13,82.051 222.036,84.954C219.943,87.859 218.899,91.11 218.899,94.709L218.896,94.709ZM244.136,118.077C241.972,120.524 239.754,122.293 237.485,123.386C235.211,124.481 232.426,125.027 229.134,125.027C222.646,125.027 216.792,122.904 211.572,118.659C204.507,112.784 200.976,104.888 200.976,94.971C200.976,85.815 204.103,78.373 210.352,72.645C215.81,67.549 221.95,65 228.776,65C232.05,65 234.837,65.519 237.139,66.555C239.44,67.591 241.813,69.276 244.253,71.605C246.077,67.517 248.964,65.472 252.913,65.472C255.475,65.472 257.636,66.298 259.403,67.946C261.168,69.595 262.053,71.616 262.053,74.007L262.053,114.765C262.053,117.51 261.213,119.848 259.537,121.787C257.859,123.722 255.613,124.691 252.795,124.691C248.687,124.691 245.801,122.486 244.135,118.074L244.136,118.077Z" style="fill:rgb(237,50,55);fill-rule:nonzero;"/>
            <path d="M286.824,49.627L286.824,115.351C286.824,118.02 286.026,120.246 284.427,122.023C282.829,123.804 280.623,124.692 277.808,124.692C275.088,124.692 272.923,123.788 271.318,121.981C269.709,120.174 268.906,117.963 268.906,115.35L268.906,49.627C268.906,47.976 269.253,46.439 269.948,45.012C270.644,43.584 271.67,42.463 273.03,41.648C274.388,40.833 275.982,40.424 277.808,40.424C280.584,40.424 282.781,41.304 284.4,43.066C286.016,44.826 286.824,47.013 286.824,49.627Z" style="fill:rgb(237,50,55);fill-rule:nonzero;"/>
            <path d="M37.64,160.013C31.939,160.429 23.328,160.95 23.328,167.293C23.328,170.829 26.238,172.806 30.241,172.806C33.516,172.806 35.7,171.768 37.64,170.726L37.64,160.013ZM38.004,182.375C32.789,185.079 27.33,187.782 20.415,187.782C8.892,187.782 0.157,180.294 0.157,169.996C0.157,152.836 21.629,150.444 37.156,148.676C37.398,146.076 37.519,143.268 29.634,143.268C21.144,143.268 15.078,145.348 7.799,147.845L6.949,147.429L7.677,134.326L8.405,133.494C15.562,131.62 22.598,129.853 34.728,129.853C46.254,129.853 52.32,131.934 56.079,134.846C62.145,139.63 61.903,145.662 61.659,155.854L61.538,162.51C61.538,173.013 61.538,175.406 62.508,185.913L61.78,186.745C52.075,186.638 49.65,186.745 38.853,187.055L38.003,186.326L38.003,182.376L38.004,182.375Z" style="fill:rgb(30,70,121);fill-rule:nonzero;"/>
            <path d="M103.746,152.317C105.81,153.045 108.114,153.877 110.661,155.645C113.816,157.828 117.819,162.196 117.819,168.542C117.819,179.878 107.387,187.989 87.977,187.989C79.242,187.989 71.479,186.221 68.567,185.285C67.476,184.972 66.383,184.556 65.413,184.247L64.685,183.102L65.534,169.58L66.747,169.06C68.203,170.1 69.659,171.14 71.358,171.972C75.361,174.155 80.699,175.404 84.944,175.404C92.101,175.404 92.222,171.868 92.222,171.452C92.222,168.85 89.189,167.812 85.915,166.772L80.82,165.002C77.302,163.65 72.693,161.987 69.66,158.865C67.719,156.891 65.415,152.834 65.415,148.049C65.415,141.706 69.296,136.61 73.542,133.906C80.335,129.745 89.918,129.538 94.044,129.538C102.293,129.538 107.63,130.785 113.573,132.241L114.301,132.866C113.453,139.002 113.331,140.561 112.968,145.659L111.756,145.971C108.844,144.202 104.478,141.499 96.713,141.499C90.163,141.499 90.163,145.243 90.163,145.346C90.163,147.011 92.104,148.154 95.257,149.299L103.748,152.315L103.746,152.317Z" style="fill:rgb(30,70,121);fill-rule:nonzero;"/>
            <path d="M241.174,152.317C243.236,153.045 245.542,153.877 248.089,155.645C251.243,157.828 255.244,162.196 255.244,168.542C255.244,179.878 244.814,187.989 225.405,187.989C216.671,187.989 208.907,186.221 205.995,185.285C204.905,184.972 203.813,184.556 202.841,184.247L202.113,183.102L202.964,169.58L204.176,169.06C205.633,170.1 207.088,171.14 208.786,171.972C212.79,174.155 218.127,175.404 222.373,175.404C229.529,175.404 229.651,171.868 229.651,171.452C229.651,168.85 226.617,167.812 223.344,166.772L218.248,165.002C214.731,163.65 210.122,161.987 207.088,158.865C205.148,156.891 202.843,152.834 202.843,148.049C202.843,141.706 206.726,136.61 210.97,133.906C217.764,129.745 227.346,129.538 231.473,129.538C239.721,129.538 245.059,130.785 251.001,132.241L251.731,132.866C250.88,139.002 250.759,140.561 250.397,145.659L249.183,145.971C246.272,144.202 241.906,141.499 234.141,141.499C227.589,141.499 227.589,145.243 227.589,145.346C227.589,147.011 229.53,148.154 232.685,149.299L241.177,152.315L241.174,152.317Z" style="fill:rgb(30,70,121);fill-rule:nonzero;"/>
            <path d="M286.538,145.035L286.174,163.236C286.174,165.316 286.174,169.373 287.267,171.14C288.359,172.804 290.663,173.635 292.968,173.635C295.152,173.635 297.215,173.115 299.156,172.49L300.123,172.907L298.909,185.7L298.064,186.428C292.846,187.364 288.842,187.988 283.02,187.988C271.011,187.988 265.553,184.765 263.246,178.315C262.276,175.507 262.276,173.012 262.276,168.124C262.276,163.444 262.398,158.659 262.398,153.981L262.643,144.828L254.879,145.035L254.15,144.412L254.879,131.723L255.727,130.997L263.439,131.792L263.64,117.485L264.158,114.741C273.498,112.764 275.741,113.937 285.814,111.338L286.906,111.963L286.54,131.412C290.907,131.412 292.605,131.412 298.066,130.998L299.033,131.724L297.7,144.204L296.729,145.037C294.79,145.037 292.969,144.933 291.149,144.933L286.54,145.037L286.538,145.035Z" style="fill:rgb(30,70,121);fill-rule:nonzero;"/>
            <path d="M228.155,0.075C197.032,0.075 171.445,23.115 168.451,52.609C172.427,47.804 178.435,44.739 185.157,44.739C191.677,44.739 197.509,47.632 201.482,52.191C206.461,29.245 220.248,12.741 236.49,12.741C250.668,12.741 259.772,27.029 264.908,45.464L264.908,44.963C264.908,43.314 265.372,41.774 266.301,40.347C267.227,38.919 268.599,37.799 270.413,36.984C272.226,36.167 274.353,35.76 276.792,35.76C280.29,35.76 283.075,36.573 285.192,38.143C278.192,15.754 258.87,0.075 228.156,0.075L228.155,0.075Z" style="fill:rgb(237,50,55);fill-rule:nonzero;"/>
            <path d="M199.142,143.905C195.564,146.516 191.172,148.074 186.407,148.074C181.588,148.074 177.153,146.481 173.556,143.821C173.815,147.571 173.969,151.957 173.969,158.142C173.969,167.607 173.606,176.966 173.244,186.326L174.092,187.055C184.647,186.638 187.92,186.638 199.447,186.745L200.295,186.016C199.691,177.592 199.084,169.376 199.084,153.151C199.084,150.07 199.113,146.988 199.145,143.906L199.142,143.905Z" style="fill:rgb(30,70,121);fill-rule:nonzero;"/>
            <path d="M213.327,45.626C218.12,38.984 224.739,35.659 233.188,35.659C243.223,35.659 250.668,38.877 255.527,45.31C259.249,50.236 261.534,56.187 262.407,63.145C262.673,61.374 262.819,59.573 262.819,57.737C262.819,47.844 260.387,39.681 255.527,33.25C250.668,26.817 243.225,23.599 233.188,23.599C224.739,23.599 218.12,26.922 213.327,33.566C208.535,40.209 206.146,47.651 206.146,55.889C206.146,58.087 206.286,60.212 206.554,62.276C207.413,56.262 209.663,50.708 213.327,45.626Z" style="fill:rgb(30,70,121);fill-rule:nonzero;"/>
            <path d="M162.821,65.739L162.837,65.424C162.032,65.239 161.199,65.112 160.308,65.112C156.558,65.112 152.538,67.206 148.254,71.395C146.249,67.448 143.153,65.474 138.969,65.474C136.447,65.474 134.294,66.419 132.509,68.309C131.06,69.772 130.336,72.016 130.336,75.037L130.336,115.35C130.336,117.963 131.138,120.174 132.746,121.981C134.353,123.787 136.516,124.692 139.235,124.692C142.052,124.692 144.262,123.804 145.859,122.023C147.455,120.246 148.254,118.018 148.254,115.351L148.254,92.47C148.254,89.283 149.187,87.003 151.05,85.631C153.017,84.185 156.181,82.777 160.546,81.405C163.446,80.542 165.616,79.62 167.113,78.644C164.428,75.036 162.821,70.58 162.821,65.737L162.821,65.739Z" style="fill:rgb(237,50,55);fill-rule:nonzero;"/>
            <path d="M171.976,109.404C175.512,106.894 179.821,105.407 184.488,105.407C189.488,105.407 194.08,107.117 197.747,109.963C197.497,104.662 197.33,98.353 197.33,89.816C197.33,88.201 197.352,86.586 197.362,84.973C193.887,87.349 189.687,88.741 185.16,88.741C180.21,88.741 175.666,87.064 172.018,84.272C172.148,87.195 172.221,90.575 172.221,94.808C172.221,99.696 172.123,104.557 171.979,109.404L171.976,109.404Z" style="fill:rgb(237,50,55);fill-rule:nonzero;"/>
            <path d="M164.032,155.645C161.484,153.876 159.18,153.043 157.118,152.317L148.625,149.302C145.472,148.157 143.531,147.012 143.531,145.349C143.531,145.246 143.531,141.502 150.081,141.502C157.844,141.502 162.212,144.204 165.123,145.974L166.336,145.662C166.52,143.088 166.643,141.414 166.827,139.599C165.051,137.177 163.754,134.384 163.116,131.34C158.543,130.308 153.868,129.541 147.413,129.541C143.287,129.541 133.704,129.748 126.912,133.908C122.666,136.613 118.784,141.709 118.784,148.052C118.784,152.837 121.09,156.895 123.031,158.868C126.063,161.988 130.673,163.653 134.191,165.005L139.285,166.775C142.56,167.815 145.593,168.853 145.593,171.455C145.593,171.871 145.472,175.406 138.315,175.406C134.07,175.406 128.732,174.158 124.728,171.975C123.031,171.143 121.575,170.103 120.119,169.063L118.907,169.583L118.058,183.105L118.786,184.249C119.756,184.56 120.848,184.975 121.939,185.288C124.851,186.224 132.614,187.992 141.349,187.992C160.759,187.992 171.19,179.88 171.19,168.545C171.19,162.199 167.188,157.831 164.033,155.648L164.032,155.645Z" style="fill:rgb(30,70,121);fill-rule:nonzero;"/>
            <path d="M302.344,184.68C302.828,184.978 303.536,185.227 304.282,185.227C305.388,185.227 306.035,184.644 306.035,183.8C306.035,183.017 305.585,182.57 304.459,182.136C303.09,181.649 302.246,180.94 302.246,179.761C302.246,178.456 303.326,177.487 304.955,177.487C305.813,177.487 306.435,177.687 306.806,177.898L306.508,178.78C306.236,178.631 305.676,178.384 304.916,178.384C303.774,178.384 303.337,179.067 303.337,179.637C303.337,180.42 303.85,180.802 305.004,181.253C306.419,181.797 307.143,182.481 307.143,183.711C307.143,185.004 306.183,186.121 304.209,186.121C303.404,186.121 302.518,185.885 302.073,185.586L302.345,184.679L302.344,184.68Z" style="fill:rgb(30,70,121);fill-rule:nonzero;"/>
            <path d="M315.18,182.321C315.118,181.153 315.045,179.749 315.058,178.704L315.017,178.704C314.734,179.686 314.385,180.729 313.963,181.885L312.486,185.947L311.664,185.947L310.31,181.958C309.912,180.778 309.576,179.698 309.342,178.703L309.316,178.703C309.292,179.748 309.231,181.152 309.156,182.405L308.932,185.995L307.902,185.995L308.487,177.621L309.864,177.621L311.293,181.672C311.642,182.701 311.927,183.623 312.139,184.491L312.173,184.491C312.388,183.646 312.686,182.727 313.057,181.672L314.549,177.621L315.927,177.621L316.356,184.52L316.356,185.995L315.393,185.995L315.181,182.318L315.18,182.321Z" style="fill:rgb(30,70,121);fill-rule:nonzero;"/>
        </g>
    </g>
</svg>
